<svg version="1.1" xmlns="http://www.w3.org/2000/svg" xmlns:xlink="http://www.w3.org/1999/xlink" width="516" height="409"><defs/><g><text fill="#eeeeee" stroke="none" font-family="Arial" font-size="24px" font-style="normal" font-weight="normal" text-decoration="none" x="0" y="0"> </text><text fill="#eeeeee" stroke="none" font-family="Arial" font-size="24px" font-style="normal" font-weight="normal" text-decoration="none" x="0" y="30"> </text><text fill="#eeeeee" stroke="none" font-family="Arial" font-size="24px" font-style="normal" font-weight="normal" text-decoration="none" x="0" y="60"> </text><text fill="#eeeeee" stroke="none" font-family="Arial" font-size="24px" font-style="normal" font-weight="normal" text-decoration="none" x="0" y="90"> </text><text fill="#eeeeee" stroke="none" font-family="Arial" font-size="24px" font-style="normal" font-weight="normal" text-decoration="none" x="0" y="120"> </text><text fill="#eeeeee" stroke="none" font-family="Arial" font-size="24px" font-style="normal" font-weight="normal" text-decoration="none" x="0" y="150"> </text><text fill="#eeeeee" stroke="none" font-family="Arial" font-size="24px" font-style="normal" font-weight="normal" text-decoration="none" x="0" y="180"> </text><text fill="#eeeeee" stroke="none" font-family="Arial" font-size="24px" font-style="normal" font-weight="normal" text-decoration="none" x="0" y="210"> </text><text fill="#eeeeee" stroke="none" font-family="Arial" font-size="24px" font-style="normal" font-weight="normal" text-decoration="none" x="0" y="240"> </text><text fill="#eeeeee" stroke="none" font-family="Arial" font-size="24px" font-style="normal" font-weight="normal" text-decoration="none" x="0" y="270"> </text><text fill="#eeeeee" stroke="none" font-family="Arial" font-size="24px" font-style="normal" font-weight="normal" text-decoration="none" x="0" y="300"> </text><text fill="#eeeeee" stroke="none" font-family="Arial" font-size="24px" font-style="normal" font-weight="normal" text-decoration="none" x="0" y="330"> </text><text fill="#eeeeee" stroke="none" font-family="Arial" font-size="24px" font-style="normal" font-weight="normal" text-decoration="none" x="0" y="360"> </text><text fill="#eeeeee" stroke="none" font-family="Arial" font-size="24px" font-style="normal" font-weight="normal" text-decoration="none" x="0" y="390"> </text><text fill="#eeeeee" stroke="none" font-family="Arial" font-size="24px" font-style="normal" font-weight="normal" text-decoration="none" x="200" y="0"> </text><text fill="#eeeeee" stroke="none" font-family="Arial" font-size="24px" font-style="normal" font-weight="normal" text-decoration="none" x="200" y="30"> </text><text fill="#eeeeee" stroke="none" font-family="Arial" font-size="24px" font-style="normal" font-weight="normal" text-decoration="none" x="200" y="60"> </text><text fill="#eeeeee" stroke="none" font-family="Arial" font-size="24px" font-style="normal" font-weight="normal" text-decoration="none" x="200" y="90"> </text><text fill="#eeeeee" stroke="none" font-family="Arial" font-size="24px" font-style="normal" font-weight="normal" text-decoration="none" x="200" y="120"> </text><text fill="#eeeeee" stroke="none" font-family="Arial" font-size="24px" font-style="normal" font-weight="normal" text-decoration="none" x="200" y="150"> </text><text fill="#eeeeee" stroke="none" font-family="Arial" font-size="24px" font-style="normal" font-weight="normal" text-decoration="none" x="200" y="180"> </text><text fill="#eeeeee" stroke="none" font-family="Arial" font-size="24px" font-style="normal" font-weight="normal" text-decoration="none" x="200" y="210"> </text><text fill="#eeeeee" stroke="none" font-family="Arial" font-size="24px" font-style="normal" font-weight="normal" text-decoration="none" x="200" y="240"> </text><text fill="#eeeeee" stroke="none" font-family="Arial" font-size="24px" font-style="normal" font-weight="normal" text-decoration="none" x="200" y="270"> </text><text fill="#eeeeee" stroke="none" font-family="Arial" font-size="24px" font-style="normal" font-weight="normal" text-decoration="none" x="200" y="300"> </text><text fill="#eeeeee" stroke="none" font-family="Arial" font-size="24px" font-style="normal" font-weight="normal" text-decoration="none" x="200" y="330"> </text><text fill="#eeeeee" stroke="none" font-family="Arial" font-size="24px" font-style="normal" font-weight="normal" text-decoration="none" x="200" y="360"> </text><text fill="#eeeeee" stroke="none" font-family="Arial" font-size="24px" font-style="normal" font-weight="normal" text-decoration="none" x="200" y="390"> </text><text fill="#eeeeee" stroke="none" font-family="Arial" font-size="24px" font-style="normal" font-weight="normal" text-decoration="none" x="400" y="0"> </text><text fill="#eeeeee" stroke="none" font-family="Arial" font-size="24px" font-style="normal" font-weight="normal" text-decoration="none" x="400" y="30"> </text><text fill="#eeeeee" stroke="none" font-family="Arial" font-size="24px" font-style="normal" font-weight="normal" text-decoration="none" x="400" y="60"> </text><text fill="#eeeeee" stroke="none" font-family="Arial" font-size="24px" font-style="normal" font-weight="normal" text-decoration="none" x="400" y="90"> </text><text fill="#eeeeee" stroke="none" font-family="Arial" font-size="24px" font-style="normal" font-weight="normal" text-decoration="none" x="400" y="120"> </text><text fill="#eeeeee" stroke="none" font-family="Arial" font-size="24px" font-style="normal" font-weight="normal" text-decoration="none" x="400" y="150"> </text><text fill="#eeeeee" stroke="none" font-family="Arial" font-size="24px" font-style="normal" font-weight="normal" text-decoration="none" x="400" y="180"> </text><text fill="#eeeeee" stroke="none" font-family="Arial" font-size="24px" font-style="normal" font-weight="normal" text-decoration="none" x="400" y="210"> </text><text fill="#eeeeee" stroke="none" font-family="Arial" font-size="24px" font-style="normal" font-weight="normal" text-decoration="none" x="400" y="240"> </text><text fill="#eeeeee" stroke="none" font-family="Arial" font-size="24px" font-style="normal" font-weight="normal" text-decoration="none" x="400" y="270"> </text><text fill="#eeeeee" stroke="none" font-family="Arial" font-size="24px" font-style="normal" font-weight="normal" text-decoration="none" x="400" y="300"> </text><text fill="#eeeeee" stroke="none" font-family="Arial" font-size="24px" font-style="normal" font-weight="normal" text-decoration="none" x="400" y="330"> </text><text fill="#eeeeee" stroke="none" font-family="Arial" font-size="24px" font-style="normal" font-weight="normal" text-decoration="none" x="400" y="360"> </text><text fill="#eeeeee" stroke="none" font-family="Arial" font-size="24px" font-style="normal" font-weight="normal" text-decoration="none" x="400" y="390"> </text><g transform="translate(-414,-262) scale(1,1)"><rect fill="#ffffff" stroke="none" x="688" y="272" width="67" height="32"/></g><g transform="translate(-414,-262) scale(1,1)"><path fill="none" stroke="#000000" d="M 688 272 L 755 272 L 755 304 L 688 304 L 688 272 Z Z" stroke-miterlimit="10"/></g><g transform="translate(-414,-262) scale(1,1)"><g><path fill="none" stroke="none"/><text fill="#000000" stroke="none" font-family="Arial" font-size="13px" font-style="normal" font-weight="normal" text-decoration="none" x="705.595947265625" y="294.5">Login</text></g></g><g transform="translate(-414,-262) scale(1,1)"><rect fill="#ffffff" stroke="none" x="664" y="344" width="106" height="45"/></g><g transform="translate(-414,-262) scale(1,1)"><path fill="none" stroke="#000000" d="M 664 344 L 770 344 L 770 389 L 664 389 L 664 344 Z Z" stroke-miterlimit="10"/></g><g transform="translate(-414,-262) scale(1,1)"><g><path fill="none" stroke="none"/><text fill="#000000" stroke="none" font-family="Arial" font-size="13px" font-style="normal" font-weight="normal" text-decoration="none" x="690.9873046875" y="366.5">Halaman</text><text fill="#000000" stroke="none" font-family="Arial" font-size="13px" font-style="normal" font-weight="normal" text-decoration="none" x="697.85546875" y="379.5">Utama</text></g></g><g transform="translate(-414,-262) scale(1,1)"><rect fill="#ffffff" stroke="none" x="680" y="448" width="73.18994140625" height="32"/></g><g transform="translate(-414,-262) scale(1,1)"><path fill="none" stroke="#000000" d="M 680 448 L 753.18994140625 448 L 753.18994140625 480 L 680 480 L 680 448 Z Z" stroke-miterlimit="10"/></g><g transform="translate(-414,-262) scale(1,1)"><g><path fill="none" stroke="none"/><text fill="#000000" stroke="none" font-family="Arial" font-size="13px" font-style="normal" font-weight="normal" text-decoration="none" x="698.1708984375" y="470.5">Admin</text></g></g><g transform="translate(-414,-262) scale(1,1)"><path fill="none" stroke="#000000" d="M 720 304 L 720 344" stroke-miterlimit="10"/></g><g transform="translate(-414,-262) scale(1,1)"><path fill="#000000" stroke="none" d="M 715.790482243984 333.83732514237585 L 720 344 L 724.209517756016 333.83732514237585"/></g><g transform="translate(-414,-262) scale(1,1)"><path fill="none" stroke="#000000" d="M 715.790482243984 333.83732514237585 L 720 344 L 724.209517756016 333.83732514237585 L 715.790482243984 333.83732514237585" stroke-miterlimit="10"/></g><g transform="translate(-414,-262) scale(1,1)"><path fill="none" stroke="#000000" d="M 720 389 L 720 448" stroke-miterlimit="10"/></g><g transform="translate(-414,-262) scale(1,1)"><path fill="#000000" stroke="none" d="M 715.790482243984 437.83732514237585 L 720 448 L 724.209517756016 437.83732514237585"/></g><g transform="translate(-414,-262) scale(1,1)"><path fill="none" stroke="#000000" d="M 715.790482243984 437.83732514237585 L 720 448 L 724.209517756016 437.83732514237585 L 715.790482243984 437.83732514237585" stroke-miterlimit="10"/></g><g transform="translate(-414,-262) scale(1,1)"><rect fill="#ffffff" stroke="none" x="832" y="448" width="73.18994140625" height="32"/></g><g transform="translate(-414,-262) scale(1,1)"><path fill="none" stroke="#000000" d="M 832 448 L 905.18994140625 448 L 905.18994140625 480 L 832 480 L 832 448 Z Z" stroke-miterlimit="10"/></g><g transform="translate(-414,-262) scale(1,1)"><g><path fill="none" stroke="none"/><text fill="#000000" stroke="none" font-family="Arial" font-size="13px" font-style="normal" font-weight="normal" text-decoration="none" x="845.470458984375" y="470.5">Absensi</text></g></g><g transform="translate(-414,-262) scale(1,1)"><rect fill="#ffffff" stroke="none" x="504" y="528" width="160" height="32"/></g><g transform="translate(-414,-262) scale(1,1)"><path fill="none" stroke="#000000" d="M 504 528 L 664 528 L 664 560 L 504 560 L 504 528 Z Z" stroke-miterlimit="10"/></g><g transform="translate(-414,-262) scale(1,1)"><g><path fill="none" stroke="none"/><text fill="#000000" stroke="none" font-family="Arial" font-size="13px" font-style="normal" font-weight="normal" text-decoration="none" x="569.1845703125" y="550.5">Akun</text></g></g><g transform="translate(-414,-262) scale(1,1)"><rect fill="#ffffff" stroke="none" x="776" y="528" width="136" height="32"/></g><g transform="translate(-414,-262) scale(1,1)"><path fill="none" stroke="#000000" d="M 776 528 L 912 528 L 912 560 L 776 560 L 776 528 Z Z" stroke-miterlimit="10"/></g><g transform="translate(-414,-262) scale(1,1)"><g><path fill="none" stroke="none"/><text fill="#000000" stroke="none" font-family="Arial" font-size="13px" font-style="normal" font-weight="normal" text-decoration="none" x="788.3564453125" y="550.5">Rekapitulasi Absen</text></g></g><g transform="translate(-414,-262) scale(1,1)"><rect fill="#ffffff" stroke="none" x="768" y="616" width="152" height="45"/></g><g transform="translate(-414,-262) scale(1,1)"><path fill="none" stroke="#000000" d="M 768 616 L 920 616 L 920 661 L 768 661 L 768 616 Z Z" stroke-miterlimit="10"/></g><g transform="translate(-414,-262) scale(1,1)"><g><path fill="none" stroke="none"/><text fill="#000000" stroke="none" font-family="Arial" font-size="13px" font-style="normal" font-weight="normal" text-decoration="none" x="815.0927734375" y="638.5">Download</text><text fill="#000000" stroke="none" font-family="Arial" font-size="13px" font-style="normal" font-weight="normal" text-decoration="none" x="781.491455078125" y="651.5">Rekapitulasi Bulan Ini</text></g></g><g transform="translate(-414,-262) scale(1,1)"><path fill="none" stroke="#000000" d="M 840 560 L 840 616" stroke-miterlimit="10"/></g><g transform="translate(-414,-262) scale(1,1)"><path fill="#000000" stroke="none" d="M 835.790482243984 605.8373251423759 L 840 616 L 844.209517756016 605.8373251423759"/></g><g transform="translate(-414,-262) scale(1,1)"><path fill="none" stroke="#000000" d="M 835.790482243984 605.8373251423759 L 840 616 L 844.209517756016 605.8373251423759 L 835.790482243984 605.8373251423759" stroke-miterlimit="10"/></g><g transform="translate(-414,-262) scale(1,1)"><rect fill="#ffffff" stroke="none" x="640" y="616" width="97" height="45"/></g><g transform="translate(-414,-262) scale(1,1)"><path fill="none" stroke="#000000" d="M 640 616 L 737 616 L 737 661 L 640 661 L 640 616 Z Z" stroke-miterlimit="10"/></g><g transform="translate(-414,-262) scale(1,1)"><g><path fill="none" stroke="none"/><text fill="#000000" stroke="none" font-family="Arial" font-size="13px" font-style="normal" font-weight="normal" text-decoration="none" x="665.37548828125" y="638.5">Tambah</text><text fill="#000000" stroke="none" font-family="Arial" font-size="13px" font-style="normal" font-weight="normal" text-decoration="none" x="673.6845703125" y="651.5">Akun</text></g></g><g transform="translate(-414,-262) scale(1,1)"><rect fill="#ffffff" stroke="none" x="536" y="616" width="82" height="45"/></g><g transform="translate(-414,-262) scale(1,1)"><path fill="none" stroke="#000000" d="M 536 616 L 618 616 L 618 661 L 536 661 L 536 616 Z Z" stroke-miterlimit="10"/></g><g transform="translate(-414,-262) scale(1,1)"><g><path fill="none" stroke="none"/><text fill="#000000" stroke="none" font-family="Arial" font-size="13px" font-style="normal" font-weight="normal" text-decoration="none" x="561.4609375" y="638.5">Ubah</text><text fill="#000000" stroke="none" font-family="Arial" font-size="13px" font-style="normal" font-weight="normal" text-decoration="none" x="562.1845703125" y="651.5">Akun</text></g></g><g transform="translate(-414,-262) scale(1,1)"><rect fill="#ffffff" stroke="none" x="424" y="616" width="87" height="45"/></g><g transform="translate(-414,-262) scale(1,1)"><path fill="none" stroke="#000000" d="M 424 616 L 511 616 L 511 661 L 424 661 L 424 616 Z Z" stroke-miterlimit="10"/></g><g transform="translate(-414,-262) scale(1,1)"><g><path fill="none" stroke="none"/><text fill="#000000" stroke="none" font-family="Arial" font-size="13px" font-style="normal" font-weight="normal" text-decoration="none" x="448.7109375" y="638.5">Hapus</text><text fill="#000000" stroke="none" font-family="Arial" font-size="13px" font-style="normal" font-weight="normal" text-decoration="none" x="452.6845703125" y="651.5">Akun</text></g></g><g transform="translate(-414,-262) scale(1,1)"><path fill="none" stroke="#000000" d="M 576 560 L 576 584 M 576 584 A 8 8 0 0 0 584 592 L 680 592 M 680 592 A 8 8 0 0 1 688 600 L 688 616" stroke-miterlimit="10"/></g><g transform="translate(-414,-262) scale(1,1)"><path fill="#000000" stroke="none" d="M 683.790482243984 605.8373251423759 L 688 616 L 692.209517756016 605.8373251423759"/></g><g transform="translate(-414,-262) scale(1,1)"><path fill="none" stroke="#000000" d="M 683.790482243984 605.8373251423759 L 688 616 L 692.209517756016 605.8373251423759 L 683.790482243984 605.8373251423759" stroke-miterlimit="10"/></g><g transform="translate(-414,-262) scale(1,1)"><path fill="none" stroke="#000000" d="M 576 560 L 576 616" stroke-miterlimit="10"/></g><g transform="translate(-414,-262) scale(1,1)"><path fill="#000000" stroke="none" d="M 571.790482243984 605.8373251423759 L 576 616 L 580.209517756016 605.8373251423759"/></g><g transform="translate(-414,-262) scale(1,1)"><path fill="none" stroke="#000000" d="M 571.790482243984 605.8373251423759 L 576 616 L 580.209517756016 605.8373251423759 L 571.790482243984 605.8373251423759" stroke-miterlimit="10"/></g><g transform="translate(-414,-262) scale(1,1)"><path fill="none" stroke="#000000" d="M 576 560 L 576 584 M 576 584 A 8 8 0 0 1 568 592 L 472 592 M 472 592 A 8 8 0 0 0 464 600 L 464 616" stroke-miterlimit="10"/></g><g transform="translate(-414,-262) scale(1,1)"><path fill="#000000" stroke="none" d="M 459.790482243984 605.8373251423759 L 464 616 L 468.209517756016 605.8373251423759"/></g><g transform="translate(-414,-262) scale(1,1)"><path fill="none" stroke="#000000" d="M 459.790482243984 605.8373251423759 L 464 616 L 468.209517756016 605.8373251423759 L 459.790482243984 605.8373251423759" stroke-miterlimit="10"/></g><g transform="translate(-414,-262) scale(1,1)"><path fill="none" stroke="#000000" d="M 720 389 L 720 416 M 720 416 A 8 8 0 0 0 728 424 L 856 424 M 856 424 A 8 8 0 0 1 864 432 L 864 448" stroke-miterlimit="10"/></g><g transform="translate(-414,-262) scale(1,1)"><path fill="#000000" stroke="none" d="M 859.790482243984 437.83732514237585 L 864 448 L 868.209517756016 437.83732514237585"/></g><g transform="translate(-414,-262) scale(1,1)"><path fill="none" stroke="#000000" d="M 859.790482243984 437.83732514237585 L 864 448 L 868.209517756016 437.83732514237585 L 859.790482243984 437.83732514237585" stroke-miterlimit="10"/></g><g transform="translate(-414,-262) scale(1,1)"><path fill="none" stroke="#000000" d="M 720 448 L 720 389" stroke-miterlimit="10"/></g><g transform="translate(-414,-262) scale(1,1)"><path fill="#000000" stroke="none" d="M 724.209517756016 399.16267485762415 L 720 389 L 715.790482243984 399.16267485762415"/></g><g transform="translate(-414,-262) scale(1,1)"><path fill="none" stroke="#000000" d="M 724.209517756016 399.16267485762415 L 720 389 L 715.790482243984 399.16267485762415 L 724.209517756016 399.16267485762415" stroke-miterlimit="10"/></g><g transform="translate(-414,-262) scale(1,1)"><rect fill="#ffffff" stroke="none" x="536" y="448" width="73.18994140625" height="32"/></g><g transform="translate(-414,-262) scale(1,1)"><path fill="none" stroke="#000000" d="M 536 448 L 609.18994140625 448 L 609.18994140625 480 L 536 480 L 536 448 Z Z" stroke-miterlimit="10"/></g><g transform="translate(-414,-262) scale(1,1)"><g><path fill="none" stroke="none"/><text fill="#000000" stroke="none" font-family="Arial" font-size="13px" font-style="normal" font-weight="normal" text-decoration="none" x="553.805908203125" y="470.5">Keluar</text></g></g><g transform="translate(-414,-262) scale(1,1)"><path fill="none" stroke="#000000" d="M 720 389 L 720 416 M 720 416 A 8 8 0 0 1 712 424 L 584 424 M 584 424 A 8 8 0 0 0 576 432 L 576 448" stroke-miterlimit="10"/></g><g transform="translate(-414,-262) scale(1,1)"><path fill="#000000" stroke="none" d="M 571.790482243984 437.83732514237585 L 576 448 L 580.209517756016 437.83732514237585"/></g><g transform="translate(-414,-262) scale(1,1)"><path fill="none" stroke="#000000" d="M 571.790482243984 437.83732514237585 L 576 448 L 580.209517756016 437.83732514237585 L 571.790482243984 437.83732514237585" stroke-miterlimit="10"/></g><g transform="translate(-414,-262) scale(1,1)"><path fill="none" stroke="#000000" d="M 753 462 L 832 462" stroke-miterlimit="10"/></g><g transform="translate(-414,-262) scale(1,1)"><path fill="#000000" stroke="none" d="M 821.8373251423759 466.209517756016 L 832 462 L 821.8373251423758 457.790482243984"/></g><g transform="translate(-414,-262) scale(1,1)"><path fill="none" stroke="#000000" d="M 821.8373251423759 466.209517756016 L 832 462 L 821.8373251423758 457.790482243984 L 821.8373251423759 466.209517756016" stroke-miterlimit="10"/></g><g transform="translate(-414,-262) scale(1,1)"><path fill="none" stroke="#000000" d="M 832 462 L 753 462" stroke-miterlimit="10"/></g><g transform="translate(-414,-262) scale(1,1)"><path fill="#000000" stroke="none" d="M 763.1626748576241 457.790482243984 L 753 462 L 763.1626748576241 466.209517756016"/></g><g transform="translate(-414,-262) scale(1,1)"><path fill="none" stroke="#000000" d="M 763.1626748576241 457.790482243984 L 753 462 L 763.1626748576241 466.209517756016 L 763.1626748576241 457.790482243984" stroke-miterlimit="10"/></g><g transform="translate(-414,-262) scale(1,1)"><path fill="none" stroke="#000000" d="M 680 464 L 609 464" stroke-miterlimit="10"/></g><g transform="translate(-414,-262) scale(1,1)"><path fill="#000000" stroke="none" d="M 619.1626748576241 459.790482243984 L 609 464 L 619.1626748576241 468.209517756016"/></g><g transform="translate(-414,-262) scale(1,1)"><path fill="none" stroke="#000000" d="M 619.1626748576241 459.790482243984 L 609 464 L 619.1626748576241 468.209517756016 L 619.1626748576241 459.790482243984" stroke-miterlimit="10"/></g><g transform="translate(-414,-262) scale(1,1)"><path fill="none" stroke="#000000" d="M 716 480 L 716 536 M 716 536 A 8 8 0 0 1 708 544 L 664 544" stroke-miterlimit="10"/></g><g transform="translate(-414,-262) scale(1,1)"><path fill="#000000" stroke="none" d="M 674.1626748576241 539.790482243984 L 664 544 L 674.1626748576241 548.209517756016"/></g><g transform="translate(-414,-262) scale(1,1)"><path fill="none" stroke="#000000" d="M 674.1626748576241 539.790482243984 L 664 544 L 674.1626748576241 548.209517756016 L 674.1626748576241 539.790482243984" stroke-miterlimit="10"/></g><g transform="translate(-414,-262) scale(1,1)"><path fill="none" stroke="#000000" d="M 664 544 L 708 544 M 708 544 A 8 8 0 0 0 716 536 L 716 480" stroke-miterlimit="10"/></g><g transform="translate(-414,-262) scale(1,1)"><path fill="#000000" stroke="none" d="M 720.209517756016 490.16267485762415 L 716 480 L 711.790482243984 490.16267485762415"/></g><g transform="translate(-414,-262) scale(1,1)"><path fill="none" stroke="#000000" d="M 720.209517756016 490.16267485762415 L 716 480 L 711.790482243984 490.16267485762415 L 720.209517756016 490.16267485762415" stroke-miterlimit="10"/></g><g transform="translate(-414,-262) scale(1,1)"><path fill="none" stroke="#000000" d="M 716 480 L 716 536 M 716 536 A 8 8 0 0 0 724 544 L 776 544" stroke-miterlimit="10"/></g><g transform="translate(-414,-262) scale(1,1)"><path fill="#000000" stroke="none" d="M 765.8373251423759 548.209517756016 L 776 544 L 765.8373251423758 539.790482243984"/></g><g transform="translate(-414,-262) scale(1,1)"><path fill="none" stroke="#000000" d="M 765.8373251423759 548.209517756016 L 776 544 L 765.8373251423758 539.790482243984 L 765.8373251423759 548.209517756016" stroke-miterlimit="10"/></g><g transform="translate(-414,-262) scale(1,1)"><path fill="none" stroke="#000000" d="M 776 544 L 724 544 M 724 544 A 8 8 0 0 1 716 536 L 716 480" stroke-miterlimit="10"/></g><g transform="translate(-414,-262) scale(1,1)"><path fill="#000000" stroke="none" d="M 720.209517756016 490.16267485762415 L 716 480 L 711.790482243984 490.16267485762415"/></g><g transform="translate(-414,-262) scale(1,1)"><path fill="none" stroke="#000000" d="M 720.209517756016 490.16267485762415 L 716 480 L 711.790482243984 490.16267485762415 L 720.209517756016 490.16267485762415" stroke-miterlimit="10"/></g><g transform="translate(-414,-262) scale(1,1)"><path fill="none" stroke="#000000" d="M 688 616 L 688 600 M 688 600 A 8 8 0 0 0 680 592 L 584 592 M 584 592 A 8 8 0 0 1 576 584 L 576 560" stroke-miterlimit="10"/></g><g transform="translate(-414,-262) scale(1,1)"><path fill="#000000" stroke="none" d="M 580.209517756016 570.1626748576241 L 576 560 L 571.790482243984 570.1626748576241"/></g><g transform="translate(-414,-262) scale(1,1)"><path fill="none" stroke="#000000" d="M 580.209517756016 570.1626748576241 L 576 560 L 571.790482243984 570.1626748576241 L 580.209517756016 570.1626748576241" stroke-miterlimit="10"/></g><g transform="translate(-414,-262) scale(1,1)"><path fill="none" stroke="#000000" d="M 840 616 L 840 560" stroke-miterlimit="10"/></g><g transform="translate(-414,-262) scale(1,1)"><path fill="#000000" stroke="none" d="M 844.209517756016 570.1626748576241 L 840 560 L 835.790482243984 570.1626748576241"/></g><g transform="translate(-414,-262) scale(1,1)"><path fill="none" stroke="#000000" d="M 844.209517756016 570.1626748576241 L 840 560 L 835.790482243984 570.1626748576241 L 844.209517756016 570.1626748576241" stroke-miterlimit="10"/></g></g></svg>